<?xml version="1.0" encoding="UTF-8"?>
<svg version="1.1" xmlns="http://www.w3.org/2000/svg" width="512" height="512">
<path d="M0 0 C1.5247862 1.286998 3.04616207 2.57805895 4.5625 3.875 C5.573125 4.638125 6.58375 5.40125 7.625 6.1875 C25.26243154 22.32387353 36.1350088 46.08348002 37.5625 69.875 C37.64177734 70.96941406 37.64177734 70.96941406 37.72265625 72.0859375 C39.05821342 107.04269472 14.94972455 143.09689339 -2.4375 171.875 C-3.57213498 173.76531274 -4.70626955 175.65592595 -5.83984375 177.546875 C-6.70568165 178.98961185 -7.57154846 180.43233135 -8.4375 181.875 C-7.70909912 182.00790436 -6.98069824 182.14080872 -6.23022461 182.27774048 C-3.63590645 182.83256827 -1.25313053 183.54981501 1.24609375 184.43115234 C2.15788391 184.7509053 3.06967407 185.07065826 4.00909424 185.40010071 C4.99609314 185.75017685 5.98309204 186.10025299 7 186.4609375 C8.04677917 186.8293425 9.09355835 187.1977475 10.17205811 187.57731628 C13.63680509 188.79798691 17.0996992 190.02382027 20.5625 191.25 C23.00028151 192.11072036 25.43810772 192.97131413 27.87597656 193.83178711 C49.81259018 201.58207517 71.71797114 209.4194176 93.60813904 217.29986572 C100.49335758 219.7768222 107.38390293 222.23836329 114.27828979 224.68968201 C118.94430614 226.34935836 123.60843514 228.01429865 128.27233887 229.67990112 C130.48981928 230.47035034 132.70815127 231.25841505 134.92736816 232.04397583 C137.98642119 233.1271791 141.0423246 234.2188523 144.09765625 235.3125 C145.00228104 235.63036972 145.90690582 235.94823944 146.83894348 236.27574158 C147.67076645 236.57533279 148.50258942 236.87492401 149.35961914 237.18359375 C150.07912247 237.43939209 150.79862579 237.69519043 151.53993225 237.95874023 C153.89067021 239.02366704 155.66653768 240.11646039 157.5625 241.875 C158.24591709 247.25690955 158.24591709 247.25690955 157.5625 249.875 C154.60370225 253.4025563 151.85576866 254.7961141 147.54394531 256.30102539 C146.32878235 256.73149673 145.11361938 257.16196808 143.8616333 257.60548401 C142.5380379 258.06142307 141.21436654 258.51714167 139.890625 258.97265625 C138.5250904 259.45196987 137.15992221 259.93232854 135.79510498 260.41368103 C132.20465177 261.67696781 128.60958067 262.92655594 125.01330566 264.17315674 C121.37593189 265.43642236 117.74275129 266.71162001 114.109375 267.98632812 C110.01403899 269.42276745 105.91837482 270.85814413 101.81915283 272.28346252 C99.97749542 272.9244413 99.97749542 272.9244413 98.09863281 273.57836914 C96.95898071 273.97500763 95.81932861 274.37164612 94.6451416 274.78030396 C92.0323388 275.70815262 89.44582198 276.67975728 86.86230469 277.68530273 C83.5625 278.875 83.5625 278.875 80.5625 278.875 C80.5625 279.535 80.5625 280.195 80.5625 280.875 C81.40192139 280.98803467 82.24134277 281.10106934 83.10620117 281.2175293 C86.85041849 281.92976898 90.30176977 283.07703751 93.86328125 284.39453125 C94.56516068 284.6493074 95.2670401 284.90408356 95.9901886 285.1665802 C98.28705223 286.00170757 100.5811002 286.84426902 102.875 287.6875 C104.47105463 288.2710448 106.06724791 288.85421052 107.66357422 289.43701172 C110.13208125 290.33831846 112.60041809 291.24006539 115.06799316 292.1439209 C120.76927679 294.23002755 126.48419127 296.27466424 132.20703125 298.30078125 C134.47325227 299.10769385 136.73908964 299.91567184 139.00473022 300.72421265 C140.45587 301.23996832 141.90820277 301.75238 143.36172485 302.26138306 C145.38256307 302.96979412 147.39862318 303.69046078 149.4140625 304.4140625 C151.12843506 305.02048584 151.12843506 305.02048584 152.87744141 305.63916016 C155.5625 306.875 155.5625 306.875 157.5625 309.875 C158.29135033 315.61469631 158.29135033 315.61469631 157.5625 317.875 C152.53946737 321.84854359 147.04242448 323.70407547 141.02734375 325.75390625 C139.98225143 326.11797577 138.93715912 326.48204529 137.86039734 326.85714722 C135.59718327 327.64465072 133.3326487 328.42836728 131.06695557 329.20870972 C126.1910595 330.8884205 121.3218077 332.58700071 116.45220947 334.28486633 C113.91844893 335.16829178 111.384441 336.05096823 108.85003662 336.93254089 C96.26692277 341.31203806 83.72442777 345.80273225 71.1875 350.3125 C67.8995552 351.49387944 64.61148258 352.67490268 61.32341003 353.85592651 C59.11178527 354.65033269 56.90020695 355.44486816 54.68867493 356.23953247 C46.58404077 359.15114783 38.47650798 362.05458859 30.3671875 364.953125 C28.59245811 365.58750992 28.59245811 365.58750992 26.78187561 366.23471069 C20.87234115 368.346321 14.96178749 370.45502161 9.04956055 372.55908203 C-1.1354671 376.18521345 -11.31634762 379.81963119 -21.46878052 383.53623962 C-25.65788294 385.06868427 -29.85093372 386.59014101 -34.04443359 388.11050415 C-35.99327872 388.82065504 -37.94011918 389.53633506 -39.88476562 390.25790405 C-42.54460681 391.24453947 -45.21067624 392.21210945 -47.87890625 393.17578125 C-49.03423607 393.61315109 -49.03423607 393.61315109 -50.21290588 394.05935669 C-59.6498094 397.41445151 -67.44057059 393.66218446 -76.4765625 390.4140625 C-77.77771001 389.95160533 -79.07906101 389.48972039 -80.38059998 389.02836609 C-83.88138135 387.78556595 -87.3791926 386.53459877 -90.87648392 385.28201675 C-94.55848852 383.96483098 -98.24316409 382.65515712 -101.92749023 381.34448242 C-110.08571174 378.4404978 -118.23986136 375.52519722 -126.39292145 372.60675812 C-129.52327939 371.48639772 -132.65399508 370.36703862 -135.78466797 369.24755859 C-146.63673104 365.36592286 -157.48548091 361.47513573 -168.33203125 357.578125 C-180.01111842 353.3822484 -191.69856112 349.20998066 -203.38745117 345.04150391 C-211.59167934 342.11561163 -219.79400262 339.18440194 -227.99552917 336.25094604 C-233.00651909 334.45865696 -238.01789025 332.66748674 -243.03125 330.88183594 C-247.04645732 329.45146105 -251.05938066 328.01489373 -255.07019043 326.57223511 C-256.45970142 326.0736494 -257.85005872 325.57741471 -259.24133301 325.08377075 C-261.09546547 324.42553009 -262.94628299 323.75797336 -264.796875 323.08984375 C-265.80202148 322.73011475 -266.80716797 322.37038574 -267.84277344 321.99975586 C-270.45020567 320.86949238 -272.38397097 319.84162139 -274.4375 317.875 C-275.12091709 312.49309045 -275.12091709 312.49309045 -274.4375 309.875 C-271.66914663 306.64568236 -269.2785086 305.14829354 -265.28027344 303.77197266 C-263.73651031 303.23088364 -263.73651031 303.23088364 -262.16156006 302.67886353 C-260.49604095 302.11466202 -260.49604095 302.11466202 -258.796875 301.5390625 C-257.64189514 301.13722748 -256.48691528 300.73539246 -255.29693604 300.32138062 C-251.59746759 299.03666042 -247.89278022 297.76784939 -244.1875 296.5 C-240.53474755 295.2389307 -236.8831435 293.97458723 -233.23181152 292.70941162 C-230.87318234 291.89258978 -228.51389544 291.07766448 -226.15393066 290.26470947 C-218.45996073 287.60709057 -210.83385454 284.81821329 -203.25488281 281.84912109 C-200.4375 280.875 -200.4375 280.875 -197.4375 280.875 C-197.4375 280.215 -197.4375 279.555 -197.4375 278.875 C-198.31834259 278.74635056 -199.19918518 278.61770111 -200.10671997 278.4851532 C-203.15191974 277.92731439 -205.82438601 277.15998542 -208.72998047 276.11254883 C-209.73898407 275.75159622 -210.74798767 275.39064362 -211.78756714 275.01875305 C-212.86571686 274.62713486 -213.94386658 274.23551666 -215.0546875 273.83203125 C-216.18464142 273.42595139 -217.31459534 273.01987152 -218.47879028 272.60148621 C-222.09176389 271.301589 -225.70209897 269.99452302 -229.3125 268.6875 C-231.70296514 267.82702972 -234.09358863 266.96699921 -236.484375 266.10742188 C-242.14197348 264.07126755 -247.79378653 262.01963808 -253.4432373 259.96099854 C-256.16835778 258.97261604 -258.89800644 257.99832054 -261.62988281 257.02880859 C-263.08932438 256.50264371 -264.54864617 255.97614642 -266.0078125 255.44921875 C-267.22484863 255.01569092 -268.44188477 254.58216309 -269.69580078 254.13549805 C-272.4375 252.875 -272.4375 252.875 -274.4375 249.875 C-274.7734375 247.9375 -274.7734375 247.9375 -274.8125 245.875 C-274.84085937 245.194375 -274.86921875 244.51375 -274.8984375 243.8125 C-274.2340948 241.02000865 -272.80515213 240.43080936 -270.4375 238.875 C-268.07325745 237.84484863 -268.07325745 237.84484863 -265.40844727 236.90820312 C-263.89054596 236.36876068 -263.89054596 236.36876068 -262.34197998 235.81842041 C-261.24041565 235.43490417 -260.13885132 235.05138794 -259.00390625 234.65625 C-257.26466888 234.04109528 -257.26466888 234.04109528 -255.49029541 233.41351318 C-252.97891013 232.52618115 -250.4667951 231.64139557 -247.95303345 230.76086426 C-243.95474961 229.360225 -239.95985458 227.95010104 -235.96557617 226.53808594 C-231.84526355 225.08184602 -227.72484419 223.62592148 -223.60334778 222.17303467 C-211.55180616 217.92379682 -199.5215506 213.61634458 -187.4967041 209.29214478 C-169.83509619 202.94304342 -152.16431692 196.61929201 -134.4793396 190.33557129 C-132.34095204 189.57534732 -130.2029457 188.81405013 -128.06533813 188.05163574 C-125.13447844 187.00662596 -122.20222535 185.96562985 -119.26953125 184.92578125 C-117.96278442 184.45858421 -117.96278442 184.45858421 -116.62963867 183.98194885 C-110.66622534 181.875 -110.66622534 181.875 -108.4375 181.875 C-108.7684668 181.32376465 -109.09943359 180.7725293 -109.44042969 180.20458984 C-161.34453589 93.56081174 -161.34453589 93.56081174 -151.98095703 53.94335938 C-148.10471435 39.0043722 -141.69125911 25.47565119 -131.4375 13.875 C-130.9940625 13.28976563 -130.550625 12.70453125 -130.09375 12.1015625 C-117.00575987 -4.89686371 -94.73571401 -14.90480742 -74.1640625 -18.734375 C-47.62189933 -21.5165724 -21.34849016 -16.97013215 0 0 Z M-89.6875 54.1875 C-97.86176498 64.25163683 -99.73028047 75.28740069 -98.4375 87.875 C-95.88841517 99.30236079 -89.36997159 107.58444334 -79.9375 114.3125 C-69.83953848 120.42670312 -58.77737259 121.67959346 -47.2421875 119.18359375 C-36.72079882 115.68134877 -27.50059029 108.181537 -22.08203125 98.4375 C-17.51145017 88.40532204 -16.4949426 76.51258771 -20 65.9375 C-24.73493078 54.83375387 -33.37809595 46.49418884 -44.4375 41.875 C-61.11586285 35.20365486 -78.07167837 41.68722495 -89.6875 54.1875 Z " fill="#1F303F" transform="translate(314.4375,43.125)"/>
<path d="M0 0 C1.49536133 1.9675293 1.49536133 1.9675293 3.08203125 4.57421875 C3.67773926 5.54198242 4.27344727 6.50974609 4.88720703 7.50683594 C5.52255371 8.55645508 6.15790039 9.60607422 6.8125 10.6875 C8.15957055 12.87405886 9.50724121 15.0602481 10.85546875 17.24609375 C11.5417334 18.36483887 12.22799805 19.48358398 12.93505859 20.63623047 C16.13985902 25.85681929 19.36980445 31.06070388 22.625 36.25 C23.1919458 37.17127686 23.7588916 38.09255371 24.34301758 39.04174805 C28.26531961 45.37435153 28.26531961 45.37435153 34 50 C36.67795353 50.62556108 36.67795353 50.62556108 39.4375 50.5 C40.34371094 50.5103125 41.24992188 50.520625 42.18359375 50.53125 C46.62351953 49.69376053 49.61034152 47.78349566 52.4050293 44.19677734 C53.88256185 41.98086947 55.26289788 39.72614564 56.625 37.4375 C57.67155661 35.73027353 58.7184414 34.02324821 59.765625 32.31640625 C60.29736328 31.44000488 60.82910156 30.56360352 61.37695312 29.66064453 C63.99520214 25.36857507 66.68622237 21.12309875 69.375 16.875 C69.85018066 16.11888428 70.32536133 15.36276855 70.81494141 14.58374023 C74.12371032 9.33010033 77.53818173 4.1538471 81 -1 C88.35181777 1.11587298 95.55318738 3.54993972 102.75 6.140625 C104.42221115 6.73902695 104.42221115 6.73902695 106.12820435 7.34951782 C109.75300824 8.64725925 113.37651847 9.94857143 117 11.25 C119.52960268 12.15692231 122.05946768 13.06311166 124.58935547 13.96923828 C128.41759379 15.34054451 132.24575139 16.71207348 136.07345581 18.08486938 C143.6105732 20.78782207 151.15081149 23.48178715 158.6953125 26.1640625 C181.52332074 34.28322781 204.28466539 42.5706809 227 51 C224.62506447 53.37493553 222.81279764 53.92828185 219.6472168 55.03686523 C218.51501205 55.43661057 217.38280731 55.8363559 216.21629333 56.24821472 C214.97315872 56.6806398 213.73002411 57.11306488 212.44921875 57.55859375 C211.14040014 58.01857094 209.83177479 58.47909833 208.52333069 58.94013977 C205.71754735 59.92767572 202.91058929 60.9117678 200.10266113 61.89318848 C195.65324702 63.44853364 191.20667243 65.01187635 186.76074219 66.57714844 C186.01716146 66.83892317 185.27358074 67.1006979 184.50746727 67.3704052 C183.00000355 67.90111991 181.49254901 68.43186068 179.98510361 68.96262741 C177.70469917 69.76528946 175.42404666 70.56724318 173.14334106 71.36904907 C159.66012972 76.11061894 146.20050669 80.916395 132.75 85.75 C130.62346267 86.51369665 128.49691646 87.27736856 126.37036133 88.04101562 C123.18649568 89.18453544 120.00270139 90.32825257 116.81907654 91.47244263 C108.65445467 94.40676345 100.48778291 97.33533667 92.3203125 100.26171875 C91.10561279 100.69696869 89.89091309 101.13221863 88.6394043 101.58065796 C83.90722243 103.27624544 79.17501633 104.97176523 74.44274902 106.66711426 C71.22997305 107.81819314 68.01731712 108.96960646 64.8046875 110.12109375 C63.87061066 110.45566086 62.93653381 110.79022797 61.97415161 111.13493347 C60.63705643 111.61426079 60.63705643 111.61426079 59.27294922 112.10327148 C58.40716248 112.41086395 57.54137573 112.71845642 56.64935303 113.03536987 C54.80042339 113.70856564 52.96128439 114.40900186 51.13043213 115.12991333 C41.37651088 118.91323424 35.32645778 118.13542073 25.69140625 114.546875 C24.67817291 114.17987991 23.66493958 113.81288483 22.6210022 113.43476868 C19.26440263 112.21659751 15.91363293 110.9831213 12.5625 109.75 C10.18510244 108.88474682 7.80724511 108.02075602 5.42895508 107.15795898 C1.71265253 105.80923372 -2.0034228 104.45992771 -5.71754456 103.10520935 C-17.5780409 98.77946517 -29.46524639 94.52981048 -41.35791016 90.293396 C-47.15366205 88.22832659 -52.9478103 86.15876651 -58.7421875 84.08984375 C-61.08821397 83.25243531 -63.43424263 82.41503302 -65.78027344 81.57763672 C-72.67051151 79.11791379 -79.56014584 76.65650351 -86.44963264 74.19467735 C-90.88917598 72.60832302 -95.32879981 71.02219397 -99.7684021 69.43600464 C-102.17568606 68.57585849 -104.58293418 67.71561204 -106.99014282 66.85525513 C-119.98442343 62.21110147 -132.98218304 57.57781772 -146 53 C-146 52.01 -146 51.02 -146 50 C-145.15671143 49.70569092 -144.31342285 49.41138184 -143.44458008 49.1081543 C-124.54327894 42.50469036 -105.66915416 35.82793672 -86.82351685 29.06716919 C-83.48608671 27.8700092 -80.14821311 26.67409173 -76.81030273 25.47827148 C-66.10134676 21.63937743 -55.39782327 17.78624518 -44.70709229 13.8968811 C-39.78446478 12.10622072 -34.85889716 10.32368669 -29.93334961 8.54107666 C-27.56997917 7.68357452 -25.20782311 6.82271763 -22.84692383 5.95843506 C-19.57534226 4.76095426 -16.29992183 3.57461219 -13.0234375 2.390625 C-11.56017532 1.84998917 -11.56017532 1.84998917 -10.06735229 1.2984314 C-9.17549225 0.97855255 -8.2836322 0.65867371 -7.36474609 0.32910156 C-6.58972748 0.04665588 -5.81470886 -0.23578979 -5.01620483 -0.52679443 C-3 -1 -3 -1 0 0 Z " fill="#87C7FD" transform="translate(216,238)"/>
<path d="M0 0 C3.0886312 2.72156948 6.01692456 5.57960353 8.9296875 8.48828125 C9.67347656 9.22046875 10.41726563 9.95265625 11.18359375 10.70703125 C25.56017727 25.78697012 31.48149853 45.45618256 31.125 65.91796875 C30.13189952 95.14862497 8.4966541 126.07420983 -6.0703125 150.48828125 C-7.11743515 152.25506158 -8.16432075 154.02198244 -9.2109375 155.7890625 C-15.47875581 166.33612644 -21.95538978 176.74069716 -28.54394531 187.08984375 C-31.18457452 191.23916259 -33.81561328 195.39452975 -36.4453125 199.55078125 C-36.94853027 200.34403809 -37.45174805 201.13729492 -37.97021484 201.95458984 C-41.09431554 206.89315652 -44.12000484 211.87364307 -46.984375 216.96875 C-47.34273438 217.47019531 -47.70109375 217.97164062 -48.0703125 218.48828125 C-48.7303125 218.48828125 -49.3903125 218.48828125 -50.0703125 218.48828125 C-51.74422068 215.97741898 -53.29490046 213.46327395 -54.8203125 210.86328125 C-55.8196732 209.19284742 -56.82106496 207.52362745 -57.82421875 205.85546875 C-58.35418457 204.97342773 -58.88415039 204.09138672 -59.43017578 203.18261719 C-62.13509504 198.73910886 -64.94900013 194.36656028 -67.7578125 189.98828125 C-114.29445686 117.11038218 -114.29445686 117.11038218 -126.0703125 82.48828125 C-126.42867187 81.451875 -126.78703125 80.41546875 -127.15625 79.34765625 C-132.55053315 61.23474217 -128.70452159 42.42075019 -120.19848633 26.0065918 C-117.3208559 20.70423635 -114.15074643 15.95227597 -110.0703125 11.48828125 C-109.28140625 10.60785156 -108.4925 9.72742188 -107.6796875 8.8203125 C-96.6937919 -2.82409439 -84.2706149 -9.72613795 -69.0703125 -14.51171875 C-68.22339844 -14.77855469 -67.37648437 -15.04539063 -66.50390625 -15.3203125 C-44.55129598 -20.85618813 -17.34286598 -14.18761174 0 0 Z M-80.3203125 41.80078125 C-88.49457748 51.86491808 -90.36309297 62.90068194 -89.0703125 75.48828125 C-86.52122767 86.91564204 -80.00278409 95.19772459 -70.5703125 101.92578125 C-60.47235098 108.03998437 -49.41018509 109.29287471 -37.875 106.796875 C-27.35361132 103.29463002 -18.13340279 95.79481825 -12.71484375 86.05078125 C-8.14426267 76.01860329 -7.1277551 64.12586896 -10.6328125 53.55078125 C-15.36774328 42.44703512 -24.01090845 34.10747009 -35.0703125 29.48828125 C-51.74867535 22.81693611 -68.70449087 29.3005062 -80.3203125 41.80078125 Z " fill="#FDBD31" transform="translate(305.0703125,55.51171875)"/>
<path d="M0 0 C1.09671524 0.40363266 2.19343048 0.80726532 3.32337952 1.22312927 C5.68418386 2.09289166 8.04342468 2.96690737 10.40124512 3.84472656 C15.98072279 5.92160307 21.56937218 7.97346931 27.15815353 10.02514267 C29.052692 10.72088621 30.94683125 11.41770947 32.8409729 12.11453247 C44.56440438 16.42224236 56.34212086 20.56673723 68.14453125 24.65234375 C69.47138443 25.11170822 69.47138443 25.11170822 70.82504272 25.58035278 C71.68352814 25.87747162 72.54201355 26.17459045 73.42651367 26.48071289 C74.2541069 26.76741348 75.08170013 27.05411407 75.93437195 27.34950256 C77.51092447 27.8943984 79.08829575 28.43693259 80.6665802 28.97679138 C85.63893995 30.68403597 90.52960447 32.53743235 95.36621094 34.60351562 C102.66584671 36.18806383 109.85234104 33.00694432 116.625 30.56640625 C117.66952835 30.19718552 118.7140567 29.82796478 119.79023743 29.44755554 C123.22356524 28.23169662 126.65268891 27.00439344 130.08203125 25.77734375 C132.47369521 24.9291893 134.86562637 24.08178798 137.2578125 23.23510742 C148.62110304 19.20640224 159.96825356 15.13414871 171.30110168 11.02062988 C174.97899185 9.68586312 178.65798739 8.3541813 182.3371582 7.02294922 C186.98196941 5.34221139 191.62154903 3.64796641 196.25854492 1.94580078 C198.37663536 1.17698168 200.49487291 0.40856772 202.61328125 -0.359375 C203.5702742 -0.71469803 204.52726715 -1.07002106 205.51325989 -1.43611145 C206.40155991 -1.75585434 207.28985992 -2.07559723 208.20507812 -2.4050293 C208.9704187 -2.68525436 209.73575928 -2.96547943 210.52429199 -3.25419617 C215.55616026 -4.51407445 219.60172478 -3.86341222 224.40234375 -2.09106445 C225.45784424 -1.70678787 226.51334473 -1.32251129 227.60083008 -0.92658997 C228.72900146 -0.50479965 229.85717285 -0.08300934 231.01953125 0.3515625 C232.78816528 0.9996563 232.78816528 0.9996563 234.5925293 1.6608429 C237.72644339 2.81108054 240.85707758 3.9694882 243.98638916 5.13214111 C247.12394135 6.29581439 250.2652472 7.44918786 253.40625 8.60351562 C256.9642283 9.9113933 260.52171106 11.22045445 264.07666016 12.5365448 C271.99545822 15.46775898 279.9374422 18.32704455 287.89453125 21.15234375 C285.75488123 23.29199377 284.49952907 23.80887614 281.69091797 24.80615234 C280.80844894 25.12265244 279.92597992 25.43915253 279.01676941 25.76524353 C278.04572769 26.10697098 277.07468597 26.44869843 276.07421875 26.80078125 C275.05391068 27.16494644 274.0336026 27.52911163 272.9823761 27.90431213 C269.57995816 29.11729601 266.17475025 30.32224801 262.76953125 31.52734375 C260.36869855 32.38168682 257.96806702 33.2365954 255.56762695 34.09204102 C250.5361397 35.88429201 245.50360484 37.67355236 240.47021484 39.46044922 C233.27115401 42.01660595 226.07630184 44.58445996 218.8828125 47.15625 C217.74305466 47.56369949 216.60329681 47.97114899 215.42900085 48.39094543 C213.13003673 49.21282519 210.83108143 50.03472965 208.53213501 50.85665894 C202.73681329 52.92810468 196.9407057 54.99734799 191.14453125 57.06640625 C189.98750198 57.47944504 188.83047272 57.89248383 187.63838196 58.31803894 C180.87943911 60.73062303 174.12009195 63.14207087 167.36040783 65.55257702 C161.6520372 67.58820333 155.94398049 69.6247087 150.23599243 71.66140747 C147.84254999 72.51519315 145.44897969 73.36862052 143.05526733 74.22164917 C140.79859857 75.02584422 138.54219785 75.83079189 136.28608704 76.6365509 C134.14402736 77.40017852 132.00073373 78.16035503 129.85612488 78.91679382 C124.99943514 80.63814704 120.18971831 82.41349085 115.42822266 84.38427734 C101.92001458 89.9194889 101.92001458 89.9194889 96.83203125 88.48046875 C95.1748781 87.72890274 93.53057866 86.948809 91.89453125 86.15234375 C89.91236607 85.42494122 87.91501954 84.75465298 85.9128418 84.0843811 C83.57869899 83.30215686 81.2556508 82.4926606 78.93359375 81.67529297 C78.11536133 81.38748962 77.29712891 81.09968628 76.45410156 80.80316162 C75.18711426 80.35725677 75.18711426 80.35725677 73.89453125 79.90234375 C72.1106912 79.2761642 70.32683672 78.65002578 68.54296875 78.02392578 C51.89617182 72.17500617 35.27950523 66.2421828 18.66838074 60.29286194 C9.97399332 57.17935264 1.27655264 54.07442066 -7.42127991 50.97055054 C-13.43649849 48.82388283 -19.45131947 46.67611795 -25.46508789 44.52539062 C-27.8191639 43.68356782 -30.17324911 42.84177071 -32.52734375 42 C-33.67673935 41.58900055 -34.82613495 41.1780011 -36.01036072 40.75454712 C-42.4672198 38.44731451 -48.92763685 36.1505435 -55.39274597 33.86653137 C-59.09098942 32.55940311 -62.78740739 31.24716491 -66.48355103 29.93411255 C-68.17726335 29.33405205 -69.87189475 28.73657884 -71.56747437 28.14181519 C-73.86242758 27.33665587 -76.15415949 26.52292876 -78.4453125 25.70703125 C-79.11528259 25.4746727 -79.78525269 25.24231415 -80.4755249 25.00291443 C-84.99150311 23.38027502 -84.99150311 23.38027502 -86.10546875 21.15234375 C-72.60510009 15.78084138 -58.98234927 10.78688968 -45.28759766 5.93383789 C-41.81617786 4.70088875 -38.34959217 3.45491158 -34.8828125 2.20898438 C-32.66044182 1.41976832 -30.43779559 0.63132766 -28.21484375 -0.15625 C-27.1867157 -0.52801865 -26.15858765 -0.89978729 -25.0993042 -1.28282166 C-15.20442527 -4.75530567 -9.68448557 -3.64583701 0 0 Z " fill="#B2B2B2" transform="translate(155.10546875,334.84765625)"/>
<path d="M0 0 C1.49273437 -0.0309375 1.49273437 -0.0309375 3.015625 -0.0625 C17.89869939 -0.1402184 29.93234426 5.80088879 40.65625 15.96484375 C50.92896194 26.54501362 56.79669437 39.60476152 57.375 54.375 C56.97160552 71.59819022 50.04368047 86.07821046 37.6171875 97.95703125 C24.57916916 108.85919188 10.48869965 112.14534908 -6.125 111.25 C-19.74512448 109.30426793 -30.57448856 102.95427638 -40.125 93.25 C-40.71152344 92.6621875 -41.29804688 92.074375 -41.90234375 91.46875 C-51.85166445 80.73462283 -55.95452108 65.32762676 -55.5078125 50.98828125 C-53.83443064 34.64719518 -46.11693287 22.46067063 -34.2265625 11.5 C-23.92051107 3.15079378 -12.9101085 0.06536764 0 0 Z M-30.375 29.5625 C-38.54926498 39.62663683 -40.41778047 50.66240069 -39.125 63.25 C-36.57591517 74.67736079 -30.05747159 82.95944334 -20.625 89.6875 C-10.52703848 95.80170312 0.53512741 97.05459346 12.0703125 94.55859375 C22.59170118 91.05634877 31.81190971 83.556537 37.23046875 73.8125 C41.80104983 63.78032204 42.8175574 51.88758771 39.3125 41.3125 C34.57756922 30.20875387 25.93440405 21.86918884 14.875 17.25 C-1.80336285 10.57865486 -18.75917837 17.06222495 -30.375 29.5625 Z " fill="#20303E" transform="translate(255.125,67.75)"/>
<path d="M0 0 C0.99854256 -0.00810448 0.99854256 -0.00810448 2.01725769 -0.01637268 C4.20662598 -0.02882831 6.39467093 -0.01239218 8.58398438 0.00561523 C10.1118578 0.00546017 11.63973161 0.00396996 13.16760254 0.00120544 C16.3653305 -0.00017712 19.56260916 0.01235494 22.76025391 0.03515625 C26.85262952 0.06354091 30.94425893 0.06080187 35.03668976 0.04806614 C38.19035174 0.0411006 41.34384222 0.04890814 44.4974823 0.06132317 C46.00611208 0.06582919 47.51476032 0.06618189 49.02339172 0.06225777 C51.13446593 0.05933682 53.24452329 0.07589261 55.35546875 0.09765625 C56.55506226 0.10305923 57.75465576 0.10846222 58.99060059 0.11402893 C62.48320682 0.53886637 64.37896254 1.40568894 67.17773438 3.50170898 C68.62819145 6.40262313 68.32109115 8.94214196 68.33886719 12.18286133 C68.34631454 13.21241692 68.34631454 13.21241692 68.35391235 14.26277161 C68.36854013 16.53774003 68.37533698 18.81263872 68.38085938 21.08764648 C68.38661035 22.66704307 68.39236809 24.24643964 68.39813232 25.82583618 C68.40864408 29.1396721 68.41448559 32.45348374 68.41796875 35.76733398 C68.42345368 40.01338186 68.4474807 44.25910908 68.4759407 48.50505638 C68.49456569 51.76843197 68.4997726 55.03173032 68.50130463 58.29515457 C68.50433205 59.86045713 68.51236364 61.42575831 68.52548981 62.99100876 C68.54254784 65.18150971 68.54067113 67.37122712 68.53417969 69.56176758 C68.53964813 71.43135635 68.53964813 71.43135635 68.54522705 73.3387146 C68.14949989 76.74472208 67.60412975 78.12298372 65.17773438 80.50170898 C61.51895076 81.6947906 59.87775745 81.82838642 56.36523438 80.18920898 C54.17773438 78.50170898 54.17773438 78.50170898 53.17773438 76.50170898 C53.08645144 74.56126621 53.0602119 72.61763338 53.06420898 70.67504883 C53.06432228 68.84337662 53.06432228 68.84337662 53.06443787 66.97470093 C53.06954486 65.63734904 53.07476086 64.29999756 53.08007812 62.96264648 C53.08194298 61.5978704 53.08336656 60.23309364 53.08436584 58.86831665 C53.08818575 55.27455805 53.09801154 51.68083981 53.10906982 48.08709717 C53.11929526 44.42061916 53.1238659 40.75413464 53.12890625 37.08764648 C53.13963428 29.89231558 53.15670438 22.69701793 53.17773438 15.50170898 C52.42240417 15.51059143 51.66707397 15.51947388 50.88885498 15.52862549 C43.7675235 15.60880288 36.64641112 15.66968884 29.52474594 15.70895767 C25.86346926 15.72982508 22.20256579 15.75812604 18.54150391 15.8034668 C15.00774727 15.84695661 11.47434938 15.87085246 7.94034576 15.88121796 C5.93722186 15.89219635 3.93424211 15.92341774 1.93133545 15.95489502 C0.7103717 15.95519714 -0.51059204 15.95549927 -1.76855469 15.95581055 C-3.38071869 15.96913422 -3.38071869 15.96913422 -5.02545166 15.98272705 C-8.53239003 15.3795762 -9.69721522 14.31112817 -11.82226562 11.50170898 C-12.38476562 8.00170898 -12.38476562 8.00170898 -11.82226562 4.50170898 C-8.04883691 0.58758217 -5.34392986 0.00074024 0 0 Z " fill="#1D2E3F" transform="translate(411.822265625,39.498291015625)"/>
<path d="M0 0 C0.99810448 -0.0098568 0.99810448 -0.0098568 2.01637268 -0.01991272 C4.2161572 -0.03960723 6.41587364 -0.0512986 8.61572266 -0.0612793 C9.36797749 -0.06535482 10.12023232 -0.06943035 10.89528275 -0.07362938 C14.87566095 -0.09447203 18.85600485 -0.10878247 22.83642578 -0.11816406 C26.94456656 -0.12923503 31.05216667 -0.16364735 35.1601162 -0.20333576 C38.32230632 -0.22949162 41.48436725 -0.23785485 44.64665604 -0.24144554 C46.1609119 -0.24631289 47.67516194 -0.25793125 49.18931198 -0.27648354 C51.31023727 -0.30085868 53.42975849 -0.29991423 55.55078125 -0.29296875 C57.35922012 -0.30176811 57.35922012 -0.30176811 59.20419312 -0.31074524 C63.05800309 0.27654766 64.71972316 1.38667277 67.40478516 4.17700195 C67.96728516 7.67700195 67.96728516 7.67700195 67.40478516 11.17700195 C65.27973476 13.98642114 64.11490956 15.05486917 60.60797119 15.65802002 C59.53319519 15.64913757 58.45841919 15.64025513 57.35107422 15.63110352 C56.13011047 15.63080139 54.90914673 15.63049927 53.65118408 15.63018799 C52.33752869 15.60954285 51.02387329 15.58889771 49.67041016 15.56762695 C48.30850048 15.56016282 46.94658003 15.5544707 45.58465576 15.55047607 C42.00708148 15.53523287 38.43016094 15.49596376 34.85284424 15.45166016 C31.19967492 15.41067828 27.54639954 15.39245892 23.89306641 15.37231445 C16.73000855 15.32946706 9.5674886 15.2612331 2.40478516 15.17700195 C2.41144699 15.93233215 2.41810883 16.68766235 2.42497253 17.46588135 C2.48510572 24.58722954 2.53077058 31.70845448 2.56022167 38.82999039 C2.57587186 42.49118132 2.59709787 46.15216231 2.63110352 49.81323242 C2.66372073 53.34697277 2.68164304 56.88051129 2.68941689 60.41439056 C2.69765047 62.41746177 2.72106623 64.42045188 2.74467468 66.42340088 C2.74501457 68.2548465 2.74501457 68.2548465 2.74536133 70.12329102 C2.75202316 71.19806702 2.758685 72.27284302 2.76554871 73.38018799 C2.3551186 76.56204116 1.64261821 77.9097045 -0.59521484 80.17700195 C-4.25399846 81.37008357 -5.89519177 81.50367939 -9.40771484 79.86450195 C-11.59521484 78.17700195 -11.59521484 78.17700195 -12.59521484 76.17700195 C-12.70263846 73.95189517 -12.74412844 71.72351447 -12.75634766 69.49584961 C-12.76131256 68.80947922 -12.76627747 68.12310883 -12.77139282 67.41593933 C-12.7860206 65.14097091 -12.79281745 62.86607222 -12.79833984 60.59106445 C-12.80409082 59.01166786 -12.80984856 57.4322713 -12.81561279 55.85287476 C-12.82612455 52.53903884 -12.83196606 49.2252272 -12.83544922 45.91137695 C-12.84093415 41.66532908 -12.86496117 37.41960186 -12.89342117 33.17365456 C-12.91204615 29.91027896 -12.91725307 26.64698062 -12.9187851 23.38355637 C-12.92181252 21.8182538 -12.92984411 20.25295263 -12.94297028 18.68770218 C-12.96002831 16.49720122 -12.95815159 14.30748381 -12.95166016 12.11694336 C-12.95530579 10.87055084 -12.95895142 9.62415833 -12.96270752 8.33999634 C-12.56663291 4.93099842 -12.0266802 3.55521802 -9.59521484 1.17700195 C-6.20214193 0.04597765 -3.57814377 0.02925496 0 0 Z " fill="#1D2E3E" transform="translate(44.59521484375,39.822998046875)"/>
<path d="M0 0 C4.14515847 0.76135564 5.43395828 2.31191283 8.0625 5.5625 C8.69068909 8.83229065 8.69068909 8.83229065 8.69360352 12.58422852 C8.70075882 13.27103699 8.70791412 13.95784546 8.71528625 14.66546631 C8.73212941 16.92479953 8.71280205 19.18213616 8.69140625 21.44140625 C8.69223528 23.01651676 8.69469593 24.59162719 8.69871521 26.16673279 C8.70157004 29.46290217 8.68690218 32.75839083 8.65942383 36.05444336 C8.62531259 40.27710893 8.63137101 44.49855988 8.6500864 48.72128391 C8.66065905 51.97187915 8.65171684 55.22219216 8.63670158 58.47276115 C8.63152308 60.0296641 8.63199758 61.58659655 8.63824654 63.14349556 C8.64370347 65.31969646 8.62331365 67.49416287 8.59594727 69.67016602 C8.58974869 70.90750992 8.58355011 72.14485382 8.5771637 73.41969299 C8.0625 76.5625 8.0625 76.5625 6.46665955 78.96092224 C3.20466701 81.13396218 0.97061262 81.07019272 -2.9375 81.08007812 C-3.63391602 81.0870874 -4.33033203 81.09409668 -5.04785156 81.10131836 C-7.34480932 81.11889196 -9.64053021 81.10727919 -11.9375 81.09375 C-13.53646073 81.09644513 -15.13541987 81.10032773 -16.734375 81.10534668 C-20.08349226 81.11124082 -23.43218243 81.10268192 -26.78125 81.08398438 C-31.07228591 81.06119435 -35.36232111 81.07431796 -39.65332031 81.09827423 C-42.95450366 81.1127348 -46.25545011 81.10812515 -49.55664062 81.09776306 C-51.13867308 81.09509646 -52.72072711 81.09836322 -54.30273438 81.10768127 C-56.51490163 81.11785179 -58.725453 81.1023419 -60.9375 81.08007812 C-62.195625 81.07689575 -63.45375 81.07371338 -64.75 81.07043457 C-68.51679302 80.47018849 -69.70894074 79.61229561 -71.9375 76.5625 C-72.5 73.0625 -72.5 73.0625 -71.9375 69.5625 C-69.36631064 66.94964637 -67.70081091 65.69002796 -64.05839539 65.08148193 C-62.47620964 65.0948056 -62.47620964 65.0948056 -60.86206055 65.10839844 C-59.06075935 65.10885162 -59.06075935 65.10885162 -57.22306824 65.10931396 C-55.93644791 65.12995911 -54.64982758 65.15060425 -53.32421875 65.171875 C-51.98615873 65.17934173 -50.64808772 65.18503262 -49.31001282 65.18902588 C-45.79984992 65.20424869 -42.29035626 65.24349991 -38.78045654 65.2878418 C-35.19422457 65.32886793 -31.60788373 65.34705245 -28.02148438 65.3671875 C-20.99321585 65.40999867 -13.96539012 65.47820832 -6.9375 65.5625 C-6.94638245 64.8071698 -6.95526489 64.0518396 -6.9644165 63.27362061 C-7.04459389 56.15228913 -7.10547985 49.03117675 -7.14474869 41.90951157 C-7.1656161 38.24823489 -7.19391706 34.58733142 -7.23925781 30.92626953 C-7.28274763 27.39251289 -7.30664348 23.85911501 -7.31700897 20.32511139 C-7.32798737 18.32198748 -7.35920876 16.31900774 -7.39068604 14.31610107 C-7.39113922 12.48465546 -7.39113922 12.48465546 -7.39160156 10.61621094 C-7.40048401 9.54143494 -7.40936646 8.46665894 -7.41851807 7.35931396 C-6.63971114 2.83104725 -4.44988139 0.85210495 0 0 Z " fill="#1D2E3E" transform="translate(471.9375,407.4375)"/>
<path d="M0 0 C3.6492234 0.69878746 4.6574692 1.66646485 6.9375 4.5625 C7.41851807 7.35931396 7.41851807 7.35931396 7.39160156 10.61621094 C7.39129944 11.83717468 7.39099731 13.05813843 7.39068604 14.31610107 C7.37004089 15.62975647 7.34939575 16.94341187 7.328125 18.296875 C7.32066087 19.65878468 7.31496874 21.02070512 7.31097412 22.38262939 C7.29573092 25.96020368 7.25646181 29.53712422 7.2121582 33.11444092 C7.17117632 36.76761024 7.15295697 40.42088562 7.1328125 44.07421875 C7.0899651 51.2372766 7.02173115 58.39979656 6.9375 65.5625 C7.67808151 65.55361755 8.41866302 65.54473511 9.1816864 65.5355835 C16.17020806 65.45534535 23.15866063 65.39448876 30.14752483 65.35525131 C33.74039593 65.3344003 37.33288555 65.30612951 40.92553711 65.26074219 C44.39446052 65.21719359 47.86301765 65.19334419 51.33219337 65.18299103 C53.29594133 65.1720328 55.25954247 65.14082075 57.22306824 65.10931396 C58.4239357 65.10901184 59.62480316 65.10870972 60.86206055 65.10839844 C61.91685104 65.09951599 62.97164154 65.09063354 64.05839539 65.08148193 C67.70081091 65.69002796 69.36631064 66.94964637 71.9375 69.5625 C72.5 73.0625 72.5 73.0625 71.9375 76.5625 C69.70894074 79.61229561 68.51679302 80.47018849 64.75 81.07043457 C62.8628125 81.07520813 62.8628125 81.07520813 60.9375 81.08007812 C60.24108398 81.0870874 59.54466797 81.09409668 58.82714844 81.10131836 C56.53019068 81.11889196 54.23446979 81.10727919 51.9375 81.09375 C50.33853927 81.09644513 48.73958013 81.10032773 47.140625 81.10534668 C43.79150774 81.11124082 40.44281757 81.10268192 37.09375 81.08398438 C32.80271409 81.06119435 28.51267889 81.07431796 24.22167969 81.09827423 C20.92049634 81.1127348 17.61954989 81.10812515 14.31835938 81.09776306 C12.73632692 81.09509646 11.15427289 81.09836322 9.57226562 81.10768127 C7.36009837 81.11785179 5.149547 81.1023419 2.9375 81.08007812 C1.679375 81.07689575 0.42125 81.07371338 -0.875 81.07043457 C-4.0625 80.5625 -4.0625 80.5625 -6.46665955 78.96092224 C-8.61577553 75.73097055 -8.5765653 73.53914268 -8.59594727 69.67016602 C-8.60456284 68.98510986 -8.61317841 68.30005371 -8.62205505 67.59423828 C-8.6447176 65.33457417 -8.63797623 63.07615011 -8.62890625 60.81640625 C-8.63414211 59.24226005 -8.64041845 57.668117 -8.64768982 56.09397888 C-8.65809473 52.79614491 -8.65353215 49.4987424 -8.63891602 46.20092773 C-8.62173523 41.97933372 -8.64521252 37.75910165 -8.68040562 33.53765965 C-8.70239172 30.28703328 -8.70093523 27.03673213 -8.6926403 23.78605461 C-8.69182129 22.22995447 -8.69867537 20.67383034 -8.71341133 19.11779976 C-8.73087994 16.93909764 -8.71630065 14.76283358 -8.69360352 12.58422852 C-8.69264175 11.34608902 -8.69167999 10.10794952 -8.69068909 8.83229065 C-7.71776196 3.76810203 -5.09352916 0.93554617 0 0 Z " fill="#1D2E3E" transform="translate(40.0625,407.4375)"/>
</svg>
